<svg xmlns="http://www.w3.org/2000/svg" viewBox="0 0 198.43 198.43"><defs><style>.a{fill:none;}</style></defs><rect x="63.78" y="178.58" width="70.87" height="5.67" rx="2.83"/><rect x="70.87" y="171.5" width="56.69" height="5.67" rx="2.83"/><path d="M441.4,368.51H399.88a2.92,2.92,0,0,1-2.63-1.43l-3.4-6.8c-.74-1.49.63-3.11,2.63-3.11H444.8c2,0,3.38,1.62,2.63,3.11l-3.4,6.8A2.9,2.9,0,0,1,441.4,368.51Z" transform="translate(-321.43 -198.43)"/><path d="M399.88,300.48H441.4A2.9,2.9,0,0,1,444,301.9l3.4,6.81c.75,1.49-.62,3.11-2.63,3.11H396.48c-2,0-3.37-1.62-2.63-3.11l3.4-6.81A2.91,2.91,0,0,1,399.88,300.48Z" transform="translate(-321.43 -198.43)"/><path d="M409.75,287.72h21.79c.61,0,1.16.57,1.38,1.43l1.79,6.8c.39,1.49-.33,3.11-1.38,3.11H408c-1,0-1.77-1.62-1.38-3.11l1.78-6.8C408.59,288.29,409.14,287.72,409.75,287.72Z" transform="translate(-321.43 -198.43)"/><path d="M453.24,313.23H388c-7.82,0-14.17,9.52-14.17,21.26s6.35,21.26,14.17,21.26h65.2c7.83,0,14.17-9.52,14.17-21.26S461.07,313.23,453.24,313.23Z" transform="translate(-321.43 -198.43)"/><path d="M427.17,279.83a6.53,6.53,0,0,1-13.06,0c0-3.61,6.53-17,6.53-17S427.17,276.22,427.17,279.83Z" transform="translate(-321.43 -198.43)"/><rect class="a" width="198.43" height="198.43"/></svg>