<svg xmlns="http://www.w3.org/2000/svg" viewBox="0 0 198.43 198.43"><defs><style>.a{fill:none;}</style></defs><rect x="64.74" y="178.58" width="70.87" height="5.67" rx="2.83"/><path d="M454.3,375.6H388.91c-1.83,0-3.47-.57-4.15-1.43l-5.35-6.8c-1.18-1.49,1-3.11,4.14-3.11h76.1c3.16,0,5.32,1.62,4.15,3.11l-5.36,6.8A5.53,5.53,0,0,1,454.3,375.6Z" transform="translate(-321.43 -198.43)"/><path d="M377.16,287.91h0v31.53h0a7.36,7.36,0,0,0,4.37,6.72l9.34,4.15a7.4,7.4,0,0,0,3,.63,7.58,7.58,0,0,0,2.74-.52l2.93-1.18a7.35,7.35,0,0,0,4.31-4.71l2.12-7a5.52,5.52,0,0,1,2.89-3.6l5.08-2.55v11.57h0a11,11,0,0,1-6.1,9.87l-13.15,6.58a18.4,18.4,0,0,0-10.17,16.45h0v4.36a2.65,2.65,0,0,0,2.65,2.65h68.21a2.65,2.65,0,0,0,2.65-2.65L458,315a44.11,44.11,0,0,0-44.1-44.12H377.16v2.76a3.82,3.82,0,0,0,.42,1.74l3.26,6.53L378.77,284A5.49,5.49,0,0,0,377.16,287.91Z" transform="translate(-321.43 -198.43)"/><rect class="a" width="198.43" height="198.43"/></svg>