<svg xmlns="http://www.w3.org/2000/svg" viewBox="0 0 198.43 198.43"><defs><style>.a{fill:none;}</style></defs><rect x="70.87" y="178.58" width="56.69" height="5.67" rx="2.83"/><rect x="76.54" y="113.65" width="45.35" height="5.67" rx="2.83"/><rect x="85.04" y="106.83" width="28.35" height="5.67" rx="2.83"/><path d="M403.21,369.93h34.87a3.07,3.07,0,0,1,2.21.71l2.86,3.4c.62.75-.53,1.56-2.21,1.56H400.35c-1.69,0-2.84-.81-2.21-1.56l2.86-3.4A3,3,0,0,1,403.21,369.93Z" transform="translate(-321.43 -198.43)"/><path d="M438.08,368.51H403.21a3,3,0,0,1-2.21-.71l-2.86-3.41c-.63-.74.52-1.55,2.21-1.55h40.59c1.68,0,2.83.81,2.21,1.55l-2.86,3.41A3.07,3.07,0,0,1,438.08,368.51Z" transform="translate(-321.43 -198.43)"/><path d="M445.34,318.9H396c-5.93,0-10.74,9.52-10.74,21.26S390,361.42,396,361.42h49.39c5.93,0,10.74-9.52,10.74-21.26S451.27,318.9,445.34,318.9Z" transform="translate(-321.43 -198.43)"/><path d="M427.17,297.58a6.53,6.53,0,0,1-13.06,0c0-3.6,6.53-17,6.53-17S427.17,294,427.17,297.58Z" transform="translate(-321.43 -198.43)"/><rect class="a" width="198.43" height="198.43"/></svg>