<svg xmlns="http://www.w3.org/2000/svg" viewBox="0 0 198.43 198.43"><defs><style>.a{fill:none;}</style></defs><rect x="63.78" y="178.58" width="70.87" height="5.67" rx="2.83"/><path d="M393.4,326h54.49a6.63,6.63,0,0,1,3.45.71l4.47,3.4c1,.75-.83,1.56-3.46,1.56H388.93c-2.63,0-4.43-.81-3.45-1.56l4.46-3.4A6.7,6.7,0,0,1,393.4,326Z" transform="translate(-321.43 -198.43)"/><path d="M420.64,316l28.13,7c.79.74-.65,1.55-2.76,1.55H395.28c-2.11,0-3.55-.81-2.77-1.55Z" transform="translate(-321.43 -198.43)"/><path d="M453.24,333.08H388c-7.82,0-14.17,9.51-14.17,21.26S380.22,375.6,388,375.6h65.2c7.83,0,14.17-9.52,14.17-21.26S461.07,333.08,453.24,333.08Z" transform="translate(-321.43 -198.43)"/><rect class="a" width="198.43" height="198.43"/></svg>