<?xml version="1.0" encoding="utf-8"?>
<!-- Generator: Adobe Illustrator 25.0.1, SVG Export Plug-In . SVG Version: 6.00 Build 0)  -->
<svg version="1.1" id="Layer_1" xmlns="http://www.w3.org/2000/svg" xmlns:xlink="http://www.w3.org/1999/xlink" x="0px" y="0px"
	 viewBox="0 0 198.4 198.4" style="enable-background:new 0 0 198.4 198.4;" xml:space="preserve">
<style type="text/css">
	.st0{fill:#FFFFFF;stroke:#000000;stroke-width:0.5;stroke-miterlimit:10;}
	.st1{fill:none;}
</style>
<path class="st0" d="M66.6,178.6h65.2c1.6,0,2.8,1.3,2.8,2.8v0c0,1.6-1.3,2.8-2.8,2.8H66.6c-1.6,0-2.8-1.3-2.8-2.8v0
	C63.8,179.8,65,178.6,66.6,178.6z"/>
<path class="st0" d="M73.7,171.5h51c1.6,0,2.8,1.3,2.8,2.8v0c0,1.6-1.3,2.8-2.8,2.8h-51c-1.6,0-2.8-1.3-2.8-2.8v0
	C70.9,172.8,72.1,171.5,73.7,171.5z"/>
<path class="st0" d="M79.4,164.4h39.7c1.6,0,2.8,1.3,2.8,2.8v0c0,1.6-1.3,2.8-2.8,2.8H79.4c-1.6,0-2.8-1.3-2.8-2.8v0
	C76.5,165.7,77.8,164.4,79.4,164.4z"/>
<path class="st0" d="M96.4,69.4h5.7c3.1,0,5.7,2.5,5.7,5.7l0,0c0,3.1-2.5,5.7-5.7,5.7h-5.7c-3.1,0-5.7-2.5-5.7-5.7l0,0
	C90.7,72,93.2,69.4,96.4,69.4z"/>
<path class="st0" d="M120,163H78.5c-1.1,0-2.1-0.5-2.6-1.4l-3.4-6.8c-0.7-1.5,0.6-3.1,2.6-3.1h48.3c2,0,3.4,1.6,2.6,3.1l-3.4,6.8
	C122.1,162.5,121,163,120,163z"/>
<path class="st0" d="M78.5,95H120c1.1,0,2.1,0.5,2.6,1.4l3.4,6.8c0.8,1.5-0.6,3.1-2.6,3.1H75.1c-2,0-3.4-1.6-2.6-3.1l3.4-6.8
	C76.4,95.5,77.4,94.9,78.5,95z"/>
<path class="st0" d="M88.3,82.2h21.8c0.6,0,1.2,0.6,1.4,1.4l1.8,6.8c0.4,1.5-0.3,3.1-1.4,3.1H86.5c-1.1,0-1.8-1.6-1.4-3.1l1.8-6.8
	C87.2,82.8,87.7,82.2,88.3,82.2z"/>
<path class="st0" d="M128.9,107.7H69.6c-7.1,0-12.9,9.5-12.9,21.3s5.8,21.3,12.9,21.3h59.3c7.1,0,12.9-9.5,12.9-21.3
	S136,107.7,128.9,107.7z"/>
<path class="st0" d="M105.5,61.5c0,3.6-2.9,6.5-6.5,6.5c-3.6,0-6.5-2.9-6.5-6.5c0,0,0,0,0,0c0-3.6,6.5-43.2,6.5-43.2
	S105.5,57.9,105.5,61.5z"/>
<rect y="0" class="st1" width="198.4" height="198.4"/>
</svg>
