<?xml version="1.0" encoding="utf-8"?>
<!-- Generator: Adobe Illustrator 25.0.1, SVG Export Plug-In . SVG Version: 6.00 Build 0)  -->
<svg version="1.1" id="Layer_1" xmlns="http://www.w3.org/2000/svg" xmlns:xlink="http://www.w3.org/1999/xlink" x="0px" y="0px"
	 viewBox="0 0 198.4 198.4" style="enable-background:new 0 0 198.4 198.4;" xml:space="preserve">
<style type="text/css">
	.st0{fill:#FFFFFF;stroke:#000000;stroke-width:0.5;stroke-miterlimit:10;}
	.st1{fill:none;}
</style>
<path class="st0" d="M59.5,147.4h79.4c1.6-0.1,2.8-1.4,2.7-3c-0.1-1.4-1.2-2.6-2.7-2.7H59.5c-1.6-0.1-2.9,1.1-3,2.7
	c-0.1,1.6,1.1,2.9,2.7,3C59.3,147.4,59.4,147.4,59.5,147.4z"/>
<path class="st0" d="M138.9,148.8H59.5c-1.6-0.1-2.9,1.1-3,2.7c-0.1,1.6,1.1,2.9,2.7,3c0.1,0,0.2,0,0.3,0h79.4
	c1.6-0.1,2.8-1.4,2.7-3C141.5,150.1,140.3,148.9,138.9,148.8z"/>
<path class="st0" d="M138.9,155.9H59.5c-1.6,0-2.8,1.3-2.8,2.8v0v19.1c0,3.5,2.9,6.4,6.4,6.4h72.3c3.5,0,6.4-2.9,6.4-6.4v0v-19.1
	C141.7,157.2,140.5,155.9,138.9,155.9z"/>
<rect y="0" class="st1" width="198.4" height="198.4"/>
</svg>
