<?xml version="1.0" encoding="utf-8"?>
<!-- Generator: Adobe Illustrator 25.0.1, SVG Export Plug-In . SVG Version: 6.00 Build 0)  -->
<svg version="1.1" id="Layer_1" xmlns="http://www.w3.org/2000/svg" xmlns:xlink="http://www.w3.org/1999/xlink" x="0px" y="0px"
	 viewBox="0 0 198.4 198.4" style="enable-background:new 0 0 198.4 198.4;" xml:space="preserve">
<style type="text/css">
	.st0{fill:#FFFFFF;stroke:#000000;stroke-width:0.5;stroke-miterlimit:10;}
	.st1{fill:none;}
</style>
<path class="st0" d="M67.6,178.6h65.2c1.6,0,2.8,1.3,2.8,2.8v0c0,1.6-1.3,2.8-2.8,2.8H67.6c-1.6,0-2.8-1.3-2.8-2.8v0
	C64.7,179.8,66,178.6,67.6,178.6z"/>
<path class="st0" d="M132.9,177.2H67.5c-1.8,0-3.5-0.6-4.2-1.4l-5.4-6.8c-1.2-1.5,1-3.1,4.2-3.1h76.1c3.2,0,5.3,1.6,4.2,3.1
	l-5.4,6.8C136.3,176.6,134.7,177.2,132.9,177.2z"/>
<path class="st0" d="M55.7,89.5L55.7,89.5V121l0,0c0,2.9,1.7,5.5,4.4,6.7l9.3,4.2c0.9,0.4,2,0.6,3,0.6c0.9,0,1.9-0.2,2.7-0.5
	l2.9-1.2c2.1-0.8,3.7-2.6,4.3-4.7l2.1-7c0.4-1.6,1.5-2.9,2.9-3.6l5.1-2.5v11.6l0,0c0,4.2-2.4,8-6.1,9.9l-13.2,6.6
	c-6.2,3.1-10.2,9.5-10.2,16.5l0,0v4.4c0,1.5,1.2,2.6,2.7,2.6l0,0h68.2c1.5,0,2.7-1.2,2.7-2.7v-45.1c0-24.4-19.7-44.1-44.1-44.1H55.7
	v2.8c0,0.6,0.1,1.2,0.4,1.7l3.3,6.5l-2.1,2.1C56.3,86.6,55.7,88,55.7,89.5z"/>
<rect y="0" class="st1" width="198.4" height="198.4"/>
</svg>
