<?xml version="1.0" encoding="utf-8"?>
<!-- Generator: Adobe Illustrator 25.0.1, SVG Export Plug-In . SVG Version: 6.00 Build 0)  -->
<svg version="1.1" id="Layer_1" xmlns="http://www.w3.org/2000/svg" xmlns:xlink="http://www.w3.org/1999/xlink" x="0px" y="0px"
	 viewBox="0 0 198.4 198.4" style="enable-background:new 0 0 198.4 198.4;" xml:space="preserve">
<style type="text/css">
	.st0{fill:#FFFFFF;stroke:#000000;stroke-width:0.5;stroke-miterlimit:10;}
	.st1{fill:none;}
</style>
<path class="st0" d="M73.7,178.6h51c1.6,0,2.8,1.3,2.8,2.8v0c0,1.6-1.3,2.8-2.8,2.8h-51c-1.6,0-2.8-1.3-2.8-2.8v0
	C70.9,179.8,72.1,178.6,73.7,178.6z"/>
<path class="st0" d="M79.4,113.6h39.7c1.6,0,2.8,1.3,2.8,2.8v0c0,1.6-1.3,2.8-2.8,2.8H79.4c-1.6,0-2.8-1.3-2.8-2.8v0
	C76.5,114.9,77.8,113.6,79.4,113.6z"/>
<path class="st0" d="M87.9,106.8h22.7c1.6,0,2.8,1.3,2.8,2.8v0c0,1.6-1.3,2.8-2.8,2.8H87.9c-1.6,0-2.8-1.3-2.8-2.8v0
	C85,108.1,86.3,106.8,87.9,106.8z"/>
<path class="st0" d="M81.8,171.5h34.9c0.8-0.1,1.6,0.2,2.2,0.7l2.9,3.4c0.6,0.7-0.5,1.5-2.2,1.5H78.9c-1.7,0-2.8-0.8-2.2-1.5
	l2.8-3.4C80.2,171.7,81,171.4,81.8,171.5z"/>
<path class="st0" d="M116.7,170.1H81.8c-0.8,0.1-1.6-0.2-2.2-0.7l-2.8-3.4c-0.6-0.7,0.5-1.5,2.2-1.5h40.6c1.7,0,2.8,0.8,2.2,1.5
	l-2.9,3.4C118.2,169.9,117.5,170.1,116.7,170.1z"/>
<path class="st0" d="M123.9,120.5H74.5c-5.9,0-10.7,9.5-10.7,21.3S68.6,163,74.5,163h49.4c5.9,0,10.7-9.5,10.7-21.3
	S129.8,120.5,123.9,120.5z"/>
<path class="st0" d="M105.7,99.1c0,3.6-2.9,6.5-6.5,6.5c-3.6,0-6.5-2.9-6.5-6.5c0-3.6,6.5-17,6.5-17S105.7,95.5,105.7,99.1z"/>
<rect y="0" class="st1" width="198.4" height="198.4"/>
</svg>
