<?xml version="1.0" encoding="utf-8"?>
<!-- Generator: Adobe Illustrator 25.0.1, SVG Export Plug-In . SVG Version: 6.00 Build 0)  -->
<svg version="1.1" id="Layer_1" xmlns="http://www.w3.org/2000/svg" xmlns:xlink="http://www.w3.org/1999/xlink" x="0px" y="0px"
	 viewBox="0 0 198.4 198.4" style="enable-background:new 0 0 198.4 198.4;" xml:space="preserve">
<style type="text/css">
	.st0{fill:#FFFFFF;stroke:#000000;stroke-width:0.5;stroke-miterlimit:10;}
	.st1{fill:none;}
</style>
<path class="st0" d="M66.6,178.6h65.2c1.6,0,2.8,1.3,2.8,2.8v0c0,1.6-1.3,2.8-2.8,2.8H66.6c-1.6,0-2.8-1.3-2.8-2.8v0
	C63.8,179.8,65,178.6,66.6,178.6z"/>
<path class="st0" d="M72,127.6h54.5c1.2-0.1,2.4,0.2,3.5,0.7l4.5,3.4c1,0.8-0.8,1.6-3.5,1.6H67.5c-2.6,0-4.4-0.8-3.5-1.6l4.5-3.4
	C69.6,127.7,70.8,127.5,72,127.6z"/>
<path class="st0" d="M99.2,117.6l28.1,7c0.8,0.8-0.7,1.6-2.8,1.6H73.8c-2.1,0-3.5-0.8-2.8-1.6L99.2,117.6z"/>
<path class="st0" d="M131.8,134.6H66.6c-7.8,0-14.2,9.5-14.2,21.3s6.3,21.3,14.2,21.3h65.2c7.8,0,14.2-9.5,14.2-21.3
	S139.6,134.6,131.8,134.6z"/>
<rect y="0" class="st1" width="198.4" height="198.4"/>
</svg>
