<?xml version="1.0" encoding="utf-8"?>
<!-- Generator: Adobe Illustrator 25.0.1, SVG Export Plug-In . SVG Version: 6.00 Build 0)  -->
<svg version="1.1" id="Layer_1" xmlns="http://www.w3.org/2000/svg" xmlns:xlink="http://www.w3.org/1999/xlink" x="0px" y="0px"
	 viewBox="0 0 198.4 198.4" style="enable-background:new 0 0 198.4 198.4;" xml:space="preserve">
<style type="text/css">
	.st0{fill:#FFFFFF;stroke:#000000;stroke-width:0.5;stroke-miterlimit:10;}
	.st1{fill:none;}
</style>
<path class="st0" d="M138.9,178.6H59.5c-1.6-0.1-2.9,1.1-3,2.7c-0.1,1.6,1.1,2.9,2.7,3c0.1,0,0.2,0,0.3,0h79.4
	c1.6-0.1,2.8-1.4,2.7-3C141.5,179.8,140.3,178.7,138.9,178.6z"/>
<path class="st0" d="M138.9,171.5H59.5c-1.6-0.1-2.9,1.1-3,2.7c-0.1,1.6,1.1,2.9,2.7,3c0.1,0,0.2,0,0.3,0h79.4
	c1.6-0.1,2.8-1.4,2.7-3C141.5,172.7,140.3,171.6,138.9,171.5z"/>
<path class="st0" d="M135.3,141.7H63.1c-3.5,0-6.4,2.9-6.4,6.4v0v19.1c0,1.6,1.3,2.8,2.8,2.8l0,0h79.4c1.6,0,2.8-1.3,2.8-2.8v-19.1
	C141.7,144.6,138.9,141.7,135.3,141.7L135.3,141.7z"/>
<rect y="0" class="st1" width="198.4" height="198.4"/>
</svg>
