<?xml version="1.0" encoding="utf-8"?>
<!-- Generator: Adobe Illustrator 25.0.1, SVG Export Plug-In . SVG Version: 6.00 Build 0)  -->
<svg version="1.1" id="Layer_1" xmlns="http://www.w3.org/2000/svg" xmlns:xlink="http://www.w3.org/1999/xlink" x="0px" y="0px"
	 viewBox="0 0 198.4 198.4" style="enable-background:new 0 0 198.4 198.4;" xml:space="preserve">
<style type="text/css">
	.st0{fill:#FFFFFF;stroke:#000000;stroke-width:0.5;stroke-miterlimit:10;}
	.st1{fill:none;}
</style>
<path class="st0" d="M66.6,178.6h65.2c1.6,0,2.8,1.3,2.8,2.8v0c0,1.6-1.3,2.8-2.8,2.8H66.6c-1.6,0-2.8-1.3-2.8-2.8v0
	C63.8,179.8,65,178.6,66.6,178.6z"/>
<path class="st0" d="M73.7,171.5h51c1.6,0,2.8,1.3,2.8,2.8v0c0,1.6-1.3,2.8-2.8,2.8h-51c-1.6,0-2.8-1.3-2.8-2.8v0
	C70.9,172.8,72.1,171.5,73.7,171.5z"/>
<path class="st0" d="M120,170.1H78.5c-1.1,0-2.1-0.5-2.6-1.4l-3.4-6.8c-0.7-1.5,0.6-3.1,2.6-3.1h48.3c2,0,3.4,1.6,2.6,3.1l-3.4,6.8
	C122.1,169.6,121,170.1,120,170.1z"/>
<path class="st0" d="M78.5,102H120c1.1,0,2.1,0.5,2.6,1.4l3.4,6.8c0.8,1.5-0.6,3.1-2.6,3.1H75.1c-2,0-3.4-1.6-2.6-3.1l3.4-6.8
	C76.4,102.6,77.4,102,78.5,102z"/>
<path class="st0" d="M88.3,89.3h21.8c0.6,0,1.2,0.6,1.4,1.4l1.8,6.8c0.4,1.5-0.3,3.1-1.4,3.1H86.5c-1.1,0-1.8-1.6-1.4-3.1l1.8-6.8
	C87.2,89.8,87.7,89.3,88.3,89.3z"/>
<path class="st0" d="M131.8,114.8H66.6c-7.8,0-14.2,9.5-14.2,21.3s6.3,21.3,14.2,21.3h65.2c7.8,0,14.2-9.5,14.2-21.3
	S139.6,114.8,131.8,114.8z"/>
<path class="st0" d="M105.7,81.4c0,3.6-2.9,6.5-6.5,6.5c-3.6,0-6.5-2.9-6.5-6.5c0-3.6,6.5-17,6.5-17S105.7,77.8,105.7,81.4z"/>
<rect y="0" class="st1" width="198.4" height="198.4"/>
</svg>
