<svg xmlns="http://www.w3.org/2000/svg" viewBox="0 0 198.43 198.43"><defs><style>.a{fill:none;}</style></defs><rect x="63.78" y="178.58" width="70.87" height="5.67" rx="2.83"/><rect x="70.87" y="171.5" width="56.69" height="5.67" rx="2.83"/><rect x="76.54" y="164.41" width="45.35" height="5.67" rx="2.83"/><rect x="90.71" y="69.45" width="17.01" height="11.34" rx="5.67"/><path d="M441.4,361.42H399.88a2.91,2.91,0,0,1-2.63-1.42l-3.4-6.81c-.74-1.49.63-3.11,2.63-3.11H444.8c2,0,3.38,1.62,2.63,3.11L444,360A2.9,2.9,0,0,1,441.4,361.42Z" transform="translate(-321.43 -198.43)"/><path d="M399.88,293.39H441.4a2.89,2.89,0,0,1,2.63,1.43l3.4,6.8c.75,1.49-.62,3.11-2.63,3.11H396.48c-2,0-3.37-1.62-2.63-3.11l3.4-6.8A2.9,2.9,0,0,1,399.88,293.39Z" transform="translate(-321.43 -198.43)"/><path d="M409.75,280.63h21.79c.61,0,1.16.57,1.38,1.43l1.79,6.8c.39,1.49-.33,3.11-1.38,3.11H408c-1,0-1.77-1.62-1.38-3.11l1.78-6.8C408.59,281.2,409.14,280.63,409.75,280.63Z" transform="translate(-321.43 -198.43)"/><path d="M450.28,306.15H391c-7.12,0-12.89,9.51-12.89,21.26s5.77,21.26,12.89,21.26h59.27c7.11,0,12.88-9.52,12.88-21.26S457.39,306.15,450.28,306.15Z" transform="translate(-321.43 -198.43)"/><path d="M426.89,260a6.53,6.53,0,1,1-13.06,0c0-3.6,6.53-43.21,6.53-43.21S426.89,256.35,426.89,260Z" transform="translate(-321.43 -198.43)"/><rect class="a" width="198.43" height="198.43"/></svg>